<?xml version="1.0" encoding="UTF-8"?>
<svg id="Layer_1" data-name="Layer 1" xmlns="http://www.w3.org/2000/svg" viewBox="0 0 288 88.22">
  <defs>
    <style>
      .cls-1 {
        fill: #231f20;
      }
    </style>
  </defs>
  <g>
    <path class="cls-1" d="M41.42,73.17h1.99v10.49c0,.93-.15,1.68-.44,2.27-.29.59-.65,1.05-1.09,1.39s-.9.57-1.4.7c-.5.13-.95.2-1.37.2-1.04,0-1.91-.27-2.62-.8-.71-.53-1.16-1.34-1.36-2.41l1.95-.44c.11.55.34.99.68,1.31s.79.48,1.35.48c.5,0,.89-.1,1.19-.29.3-.19.53-.45.69-.76s.28-.67.33-1.07c.05-.4.08-.81.08-1.22v-9.85Z"/>
    <path class="cls-1" d="M63.42,73.17h9.47v1.87h-7.48v4.37h6.96v1.87h-6.96v4.71h7.86v1.87h-9.85v-14.68Z"/>
    <path class="cls-1" d="M90.8,73.17h2.07l3.24,11.73h.04l3.45-11.73h2.28l3.45,11.73h.04l3.24-11.73h2.07l-4.27,14.68h-2.11l-3.54-11.98h-.04l-3.52,11.98h-2.11l-4.29-14.68Z"/>
    <path class="cls-1" d="M129.19,73.17h9.47v1.87h-7.48v4.37h6.96v1.87h-6.96v4.71h7.86v1.87h-9.85v-14.68Z"/>
    <path class="cls-1" d="M158.44,73.17h1.99v12.81h6.74v1.87h-8.73v-14.68Z"/>
    <path class="cls-1" d="M185.78,73.17h9.47v1.87h-7.48v4.37h6.96v1.87h-6.96v4.71h7.86v1.87h-9.85v-14.68Z"/>
    <path class="cls-1" d="M215.03,73.17h5.16c.94,0,1.71.13,2.32.38.61.26,1.09.58,1.44.97.35.39.6.84.74,1.33.14.49.21.96.21,1.42s-.08.92-.25,1.36c-.17.44-.4.83-.72,1.18-.31.35-.69.65-1.14.89-.45.24-.95.39-1.5.45l4.17,6.7h-2.49l-3.73-6.47h-2.22v6.47h-1.99v-14.68ZM217.02,79.64h2.61c.39,0,.77-.03,1.15-.09.38-.06.72-.18,1.02-.34.3-.17.54-.4.71-.72s.27-.72.27-1.21-.09-.9-.27-1.21c-.18-.31-.42-.55-.71-.72-.3-.17-.64-.28-1.02-.34s-.76-.09-1.15-.09h-2.61v4.73Z"/>
    <path class="cls-1" d="M244.71,84.78c.36.54.82.94,1.38,1.19.56.26,1.14.38,1.73.38.33,0,.67-.05,1.02-.16.35-.1.66-.26.94-.47.28-.21.51-.46.69-.77.18-.3.27-.66.27-1.06,0-.57-.18-1-.54-1.3-.36-.3-.8-.55-1.34-.75-.53-.2-1.11-.39-1.74-.58-.63-.19-1.21-.45-1.74-.78-.53-.33-.98-.78-1.34-1.34-.36-.56-.54-1.32-.54-2.27,0-.43.09-.88.28-1.37.19-.48.48-.93.88-1.33.4-.4.92-.74,1.54-1.01.63-.27,1.39-.4,2.27-.4.8,0,1.57.11,2.3.33.73.22,1.37.67,1.93,1.35l-1.62,1.47c-.25-.39-.6-.7-1.06-.93-.46-.23-.97-.35-1.55-.35s-1.01.07-1.38.22c-.37.15-.66.33-.88.56s-.38.47-.47.74-.13.5-.13.73c0,.62.18,1.1.54,1.43.36.33.8.6,1.34.81.53.21,1.11.39,1.74.56s1.21.4,1.74.69c.53.3.98.7,1.34,1.2.36.5.54,1.2.54,2.08,0,.71-.13,1.34-.4,1.91-.27.57-.63,1.04-1.09,1.43-.46.39-1,.68-1.62.89-.62.21-1.29.31-1.99.31-.94,0-1.83-.17-2.67-.5-.84-.33-1.51-.84-2.01-1.53l1.64-1.41Z"/>
  </g>
  <g>
    <path class="cls-1" d="M279.68,54.62c0-.45.08-.87.25-1.26s.4-.72.69-1c.29-.28.62-.5,1.01-.67.38-.16.79-.24,1.23-.24s.84.08,1.23.24c.39.16.72.38,1.01.66.29.28.52.61.69.99.17.38.25.8.25,1.24s-.08.87-.25,1.26c-.17.39-.4.72-.69,1-.29.28-.63.5-1.01.67s-.8.24-1.23.24-.85-.08-1.23-.24-.72-.38-1.01-.66c-.29-.28-.52-.61-.69-.99s-.25-.8-.25-1.24ZM280.19,54.62c0,.38.07.73.21,1.05.14.33.33.61.57.85.24.24.53.43.85.57.32.14.67.21,1.04.21s.72-.07,1.04-.21c.32-.14.6-.33.85-.57.24-.24.43-.53.57-.86.14-.33.21-.69.21-1.07s-.07-.73-.21-1.06c-.14-.33-.33-.61-.57-.85-.24-.24-.52-.43-.85-.56-.32-.14-.67-.2-1.04-.2s-.72.07-1.04.21c-.32.14-.61.33-.85.57s-.43.53-.57.86c-.14.33-.21.69-.21,1.08ZM281.68,52.79h1.34c.44,0,.77.08.97.25.21.17.31.43.31.8,0,.33-.09.57-.28.72s-.42.24-.69.27l1.05,1.61h-.55l-1-1.57h-.65v1.57h-.51v-3.65ZM282.19,54.42h.63c.12,0,.25,0,.36-.01.12,0,.22-.03.32-.07.09-.04.17-.1.22-.18s.08-.19.08-.34c0-.12-.02-.22-.07-.3-.05-.08-.11-.13-.19-.17-.08-.04-.17-.06-.27-.08s-.2-.02-.29-.02h-.79v1.17Z"/>
    <path class="cls-1" d="M102.37,57.71h-20.2v-2.96l5.01-.02c.76,0,1.19-.31,1.1-.91-.03-.22-.35-1.89-5.83-18.07h-23.58c-.31.79-.67,1.67-1.04,2.62-2.06,5.14-4.88,12.18-4.88,14.26,0,1.74.76,2.08,1.99,2.08h6.77v2.99h-20.05v-2.98l3.21-.03c1.29,0,2.53-.23,3.01-1.28L71.87,0s4.44,0,4.56,0c.61,1.71,7.53,21.03,11.7,32.02,1.92,5.06,3.92,10.35,5.94,15.77,2.1,5.63,3.09,6.92,5.29,6.92h3.01v2.99ZM60.8,31.9h19.88l-9.12-23.06-10.76,23.06Z"/>
    <path class="cls-1" d="M132.06,57.71h-23.69v-2.99s6.81,0,6.81,0c1.06,0,1.09-1.33,1.09-1.48V15.09c0-9.1-.25-12.08-2.36-12.08h-5.98V.05l23.15-.03c5.79-.18,13.68,1.04,18.39,5.61,2.64,2.55,3.97,5.77,3.97,9.56,0,8.45-7.87,13.82-15.35,15.33,3.44,4.93,9.54,12.55,13.89,17.67,5.5,6.47,6.92,6.53,9.9,6.53h1.14v2.99h-10.01c-1.3,0-3.49-1.83-10.73-11.12-.77-.99-1.52-1.94-2.26-2.89-2.54-3.23-5.17-6.57-9.15-12h-7.86v10.06c0,9.39.19,12.94,2.24,12.94h6.8s0,3,0,3ZM123.01,28.1h5.82c8.25,0,17.06-3.01,17.06-11.46s-7.7-13.66-14.89-13.66h-5.44c-1.64,0-2.56.65-2.56,1.55v23.57Z"/>
    <path class="cls-1" d="M215.43,57.7h-45.32v-2.99h6.06c.86,0,1.08-1.06,1.08-1.62V15.08c0-9.23,0-12.02-2.67-12.02h-5.46V.02h46.27l-.03.31c-.17,1.61-.29,4.99-.44,9l-2.38-.03c-.25-5.34-1.02-6.22-14.84-6.22h-11.05c-.85-.03-1.79.06-2.39.67-.38.39-.54,1.02-.49,1.89l.14,18.24h11.9c9.49,0,11.16-.42,11.16-2.81v-3.59h3.02v15.08h-3.02v-3.18c0-2.51-1.43-2.48-10.01-2.48h-13.05v15.82c0,11.07,1.9,12,5.07,12h6.1c15.11,0,18.27-1.33,21.11-9.1l2.45.1c-1,4.1-2.21,8.57-3.18,11.79l-.06.2Z"/>
    <path class="cls-1" d="M257.87,57.7h-27.86v-2.99h4.56c.86,0,1.62-.83,1.62-1.48V15.21c0-1.62.03-3.05.05-4.31.12-6.3.03-7.79-2.84-7.85l-5.45.02-.06-3.05h29.73c29.52,0,30.37,24.47,30.37,27.27,0,17.91-12.39,30.42-30.13,30.42ZM243.19,4.5v38.26c0,11.47,1.06,11.95,3.45,11.95h11.04c16.02,0,23.48-14.56,23.48-24.39,0-24.24-18.2-27.21-27.33-27.21-.84,0-7.29-.05-9.19,0-.79.02-1.45.72-1.45,1.39Z"/>
    <path class="cls-1" d="M2.8,58.45l-2.8-10.97,2.39-.93c1.33,3.72,2.32,5.96,3.88,7.13,1.22.93,2.57,1.92,5.9,1.9,10.78-.09,15.62-7.55,15.62-17.62V11.68c0-5.3.36-8.63-3.59-8.63h-6.19V.07h25.09v2.99h-4.73c-4.05,0-3.68,3.36-3.68,9.28l-.18,24.72c0,14.99-7.93,22.05-22.61,22.43-1.75.05-6.9-.62-9.09-1.04Z"/>
  </g>
</svg>